<svg width="60" height="60" viewBox="0 0 60 60" fill="none" xmlns="http://www.w3.org/2000/svg">
<g filter="url(#filter0_dii_20759_82636)">
<path d="M2 13C2 6.37258 7.37258 1 14 1H46C52.6274 1 58 6.37258 58 13V45C58 51.6274 52.6274 57 46 57H14C7.37258 57 2 51.6274 2 45V13Z" fill="white"/>
<path d="M14 1.5H46C52.3513 1.5 57.5 6.64873 57.5 13V45C57.5 51.3513 52.3513 56.5 46 56.5H14C7.64873 56.5 2.5 51.3513 2.5 45V13C2.5 6.64873 7.64873 1.5 14 1.5Z" stroke="#D5D7DA"/>
<path d="M35.8337 26.6667V24.3333C35.8337 21.1117 33.222 18.5 30.0003 18.5C26.7787 18.5 24.167 21.1117 24.167 24.3333V26.6667M30.0003 31.9167V34.25M26.267 39.5H33.7337C35.6938 39.5 36.6739 39.5 37.4226 39.1185C38.0812 38.783 38.6166 38.2475 38.9522 37.589C39.3337 36.8403 39.3337 35.8602 39.3337 33.9V32.2667C39.3337 30.3065 39.3337 29.3264 38.9522 28.5777C38.6166 27.9191 38.0812 27.3837 37.4226 27.0481C36.6739 26.6667 35.6938 26.6667 33.7337 26.6667H26.267C24.3068 26.6667 23.3267 26.6667 22.578 27.0481C21.9195 27.3837 21.384 27.9191 21.0485 28.5777C20.667 29.3264 20.667 30.3065 20.667 32.2667V33.9C20.667 35.8602 20.667 36.8403 21.0485 37.589C21.384 38.2475 21.9195 38.783 22.578 39.1185C23.3267 39.5 24.3068 39.5 26.267 39.5Z" stroke="#414651" stroke-width="2" stroke-linecap="round" stroke-linejoin="round"/>
</g>
<defs>
<filter id="filter0_dii_20759_82636" x="0" y="0" width="60" height="60" filterUnits="userSpaceOnUse" color-interpolation-filters="sRGB">
<feFlood flood-opacity="0" result="BackgroundImageFix"/>
<feColorMatrix in="SourceAlpha" type="matrix" values="0 0 0 0 0 0 0 0 0 0 0 0 0 0 0 0 0 0 127 0" result="hardAlpha"/>
<feOffset dy="1"/>
<feGaussianBlur stdDeviation="1"/>
<feColorMatrix type="matrix" values="0 0 0 0 0.0392157 0 0 0 0 0.0496732 0 0 0 0 0.0705882 0 0 0 0.05 0"/>
<feBlend mode="normal" in2="BackgroundImageFix" result="effect1_dropShadow_20759_82636"/>
<feBlend mode="normal" in="SourceGraphic" in2="effect1_dropShadow_20759_82636" result="shape"/>
<feColorMatrix in="SourceAlpha" type="matrix" values="0 0 0 0 0 0 0 0 0 0 0 0 0 0 0 0 0 0 127 0" result="hardAlpha"/>
<feOffset dy="-2"/>
<feComposite in2="hardAlpha" operator="arithmetic" k2="-1" k3="1"/>
<feColorMatrix type="matrix" values="0 0 0 0 0.0392157 0 0 0 0 0.0496732 0 0 0 0 0.0705882 0 0 0 0.05 0"/>
<feBlend mode="normal" in2="shape" result="effect2_innerShadow_20759_82636"/>
<feColorMatrix in="SourceAlpha" type="matrix" values="0 0 0 0 0 0 0 0 0 0 0 0 0 0 0 0 0 0 127 0" result="hardAlpha"/>
<feMorphology radius="1" operator="erode" in="SourceAlpha" result="effect3_innerShadow_20759_82636"/>
<feOffset/>
<feComposite in2="hardAlpha" operator="arithmetic" k2="-1" k3="1"/>
<feColorMatrix type="matrix" values="0 0 0 0 0.0392157 0 0 0 0 0.0496732 0 0 0 0 0.0705882 0 0 0 0.18 0"/>
<feBlend mode="normal" in2="effect2_innerShadow_20759_82636" result="effect3_innerShadow_20759_82636"/>
</filter>
</defs>
</svg>
