<svg width="160" height="32" viewBox="0 0 160 32" fill="none" xmlns="http://www.w3.org/2000/svg">
<g clip-path="url(#clip0_20789_10936)">
<path fill-rule="evenodd" clip-rule="evenodd" d="M154.03 25.89H159.82L147.34 6H142.48L130 25.89H135.64L137.86 22.29L140.08 18.66L144.91 10.8L149.65 18.66L151.84 22.29L154.03 25.89Z" fill="#53389E"/>
<path d="M103.125 6.03027H118.035C126.135 6.03027 129.555 8.91027 129.555 15.4203V16.4703C129.555 23.0403 126.135 25.8903 118.035 25.8903H103.125V6.03027ZM123.945 16.3803V15.4203C123.945 11.9103 122.085 10.6503 118.185 10.6503H108.525V21.2403H118.185C122.055 21.2403 123.945 19.9803 123.945 16.3803Z" fill="#53389E"/>
<path d="M93.98 19.56V6H99.02V25.89H92.81L76.79 12.27V25.89H71.75V6H77.72L93.98 19.56Z" fill="#53389E"/>
<path d="M67.65 25.8903H62.25V6.03027H67.65V25.8903Z" fill="#53389E"/>
<path d="M59.0494 25.8903H51.9394L44.2294 16.8903L38.2594 21.3603V25.8903H32.8594V6.03027H38.2594V15.8703L51.2494 6.03027H58.8094L48.5194 13.7103L59.0494 25.8903Z" fill="#53389E"/>
<path fill-rule="evenodd" clip-rule="evenodd" d="M24.03 25.89H29.82L17.34 6H12.48L0 25.89H5.64L7.86 22.29L10.08 18.66L14.91 10.8L19.65 18.66L21.84 22.29L24.03 25.89Z" fill="#53389E"/>
</g>
<defs>
<clipPath id="clip0_20789_10936">
<rect width="160" height="20" fill="white" transform="translate(0 6)"/>
</clipPath>
</defs>
</svg>
